<?xml version="1.0" encoding="utf-8"?>
<!-- Generator: Adobe Illustrator 24.3.0, SVG Export Plug-In . SVG Version: 6.00 Build 0)  -->
<svg version="1.1" id="Layer_1" xmlns="http://www.w3.org/2000/svg" xmlns:xlink="http://www.w3.org/1999/xlink" x="0px" y="0px"
	 viewBox="0 0 595.3 390.3" style="enable-background:new 0 0 595.3 390.3;" xml:space="preserve">
<style type="text/css">
	.st0{opacity:0.7;fill:#B3E3F4;}
	.st1{fill:#B3E3F4;}
	.st2{fill:#95C93D;}
	.st3{fill:#FFFFFF;}
	.st4{opacity:0.6;}
	.st5{opacity:0.2;}
	.st6{opacity:0.1;}
	.st7{opacity:0.8;}
	.st8{fill:#2E2E2E;}
	.st9{opacity:0.3;}
	.st10{fill:#FAA61E;}
	.st11{fill:#00517B;}
</style>
<g>
	<path class="st0" d="M108.4,291.4c-14.5-10-27-24.2-31-41.4c-4-17.2,2.6-37.4,18.1-45.8c7.2-3.9,16-5.3,21.8-11.1
		c9.9-10,5.8-26.5,2-40c-4.5-15.7-7.7-32-6.2-48.3c1.5-16.3,8.2-32.6,20.8-42.9c12.6-10.4,31.5-13.7,45.7-5.6
		c16,9.1,21.9,28.7,28.5,45.9s18.3,35.9,36.6,37.2c14.8,1,27.4-9.9,37.9-20.2c22.8-22.5,44.8-46.4,71.7-63.7
		c16.8-10.9,36.4-19.2,56.4-17.7s40,15.1,43.8,34.8c3.4,17.7-5.9,38.1,4.3,53c14.2,20.9,50.9,9.4,68.3,27.7
		c10.2,10.6,9.7,27.4,6.9,41.8c-7,35.9-24.9,69.6-50.8,95.4C362.2,281.3,229.3,284.9,108.4,291.4z"/>
	<path class="st0" d="M113.3,274.9c9.3,7.5,20.5,12.2,31.5,16.8h267.7c20.9-2.4,41.6-4.2,61.6-4.3c7.8-17,14.3-35.3,12.5-53.9
		c-1.9-18.6-14.3-37.2-32.6-40.8c-17.7-3.5-37.7,7-53.2-2.2c-10.6-6.3-14.7-19.8-15-32.1c-0.3-12.3,2.2-24.7,0.9-37
		c-2-17.9-15.3-36.2-33.3-36.9c-13.6-0.5-25.8,8.8-33.9,19.7c-8.1,10.9-13.5,23.7-21.4,34.8c-7.9,11.1-19.6,20.8-33.2,21.2
		c-21,0.5-39.6-21.3-59.8-15.5c-15.3,4.4-21.8,22-26.4,37.2s-11.9,32.7-27.5,36c-12.2,2.6-24.9-4.9-36.9-1.9
		c-11.9,2.9-19.4,15.9-18.7,28.1C96.2,256.3,103.8,267.3,113.3,274.9z"/>
	<polygon class="st1" points="359.5,224.2 359.5,217.5 364.9,217.5 364.9,209.2 371.7,209.2 371.7,200.5 374.5,200.5 374.5,191.4 
		376.8,191.4 376.8,188.1 378.7,188.1 378.7,184.1 380.8,184.1 380.8,188.6 382.7,188.6 382.7,201 384.1,202.4 384.1,205.1 
		386.4,205.1 386.4,199.1 389.3,199.1 389.3,201.3 391.3,201.3 391.3,180.5 400.1,180.5 400.1,186.1 403,186.1 403,193.1 
		410.3,193.1 412.3,195.1 412.3,203 417.1,203 421.8,198.3 426.8,203.4 426.8,212.3 434.7,212.3 434.7,203.7 437.2,203.7 
		437.2,193.6 448.5,193.6 448.5,205.1 451.8,205.1 451.8,186.5 458.8,186.5 458.8,218.5 465.2,212.1 465.2,196.8 473.2,196.8 
		473.2,210.4 479.5,210.4 479.5,179.1 494.2,179.1 494.2,213.1 500.6,213.1 500.6,276.6 349.6,284 	"/>
	<polygon class="st1" points="308.2,216.5 308.2,207.7 301.1,207.7 301.1,196.7 292,196.7 292,185.4 288.4,185.4 288.4,173.3 
		285.3,173.3 285.3,169 282.9,169 282.9,163.7 280.1,163.7 280.1,169.6 277.6,169.6 277.6,185.9 275.7,187.8 275.7,191.4 
		272.7,191.4 272.7,183.5 268.9,183.5 268.9,186.3 266.3,186.3 266.3,159 254.7,159 254.7,166.4 250.9,166.4 250.9,175.5 
		241.3,175.5 238.6,178.2 238.6,188.6 232.3,188.6 226.2,182.4 219.5,189.1 219.5,200.9 209.1,200.9 209.1,189.6 205.8,189.6 
		205.8,176.2 191,176.2 191,191.4 186.5,191.4 186.5,166.9 177.4,166.9 177.4,209 168.9,200.6 168.9,180.4 158.4,180.4 158.4,198.3 
		150.1,198.3 150.1,157.1 130.7,157.1 130.7,201.8 122.4,201.8 122.4,285.6 321.2,295.3 	"/>
	<path class="st2" d="M89.5,291.7c1-4.7-2.3-23.6,12.4-25c4.6-0.4,9.5,0,12.8,3.4c-0.9-6.5,0.4-13.6,4.4-18.7
		c3.9-5.1,10.4-8.2,16.6-7.3c6.2,0.8,11.8,5.8,13.3,12.2c1.3-4.8,5.2-9.2,9.9-10c4.7-0.8,9.7,1.5,12.4,5.7
		c2.8-6.4,13.2-13.3,19.8-13.9c2.2-0.2,4.5,0,6.5,1.1c2,1.1,3.6,3,3.9,5.4c3.4-6,9.9-8.7,16.5-10c6.6-1.2,13.6,0.7,18.8,5.1
		c4,3.4,7,8.2,11.5,10.7c6,3.4,13.3,2.1,19.8,0c6.5-2.1,13-5.1,19.8-4.8c2.3-5,11.6-5.2,16.8-5.9c5.2-0.6,10.5,1,15.2,3.6
		c4.6,2.6,8.7,6.1,12.8,9.7c4-4.7,11.8-8,17.8-7.6s11.8,3.9,15.2,9.1c4-4.4,11.4-8.3,17.1-7.3c5.7,1.1,10.8,5.3,13.2,10.9
		c0.1-9.1,9.1-18.5,17.6-20.1c8.5-1.6,17.7,3.8,20.8,12.3c0.8-4.1,5.7-8.1,9.7-8.1c3.9,0,7.7,3.2,8.5,7.2c0.2-6.2,4.3-12.4,9.9-14.3
		c5.6-1.9,12.2,0.1,15.9,4.9c3.7,4.8,4.2,12.1,1.2,17.4c3.5-1.8,8.8-1.3,11.9,1.3c3.1,2.6,4.5,7.2,3.6,11.2c4.9-0.4,10.3,2.6,12,7.6
		c1.6,4.9-0.2,10.9-4.3,13.8c-21.5,15.4-51.9-2.1-77.5-6.9c-100.9-18.8-204.7,12.9-306.6,1.7C109.3,285.2,94.4,300.2,89.5,291.7z"/>
	<g>
		<path class="st3" d="M399.7,284.7c6.7-26.1,3.2-54.5-8.5-78.8c-12.8-0.2-25.6,4.1-35.6,12c0.2,12.5,1.7,24.4,3.4,36.9
			c1,7.5,2.4,15.3,6.8,21.5C372.3,285.7,389,288.9,399.7,284.7z"/>
		<path class="st3" d="M279.7,178.7c4.5-15.5,12-30.1,21.9-42.8c23.1,15.9,43,36.9,55.7,61.9c12.7,25,19.1,53.1,18.4,81.2
			c-6.9,3.1-16.5-0.3-22.7-4.7c-6.1-4.4-10.7-10.6-15.9-16.2c-6.5-7-14.1-12.9-20.7-19.8C300.2,221.4,289.2,200.1,279.7,178.7z"/>
		<path class="st4" d="M279.7,178.7c4.5-15.5,12-30.1,21.9-42.8c23.1,15.9,43,36.9,55.7,61.9c12.7,25,19.1,53.1,18.4,81.2
			c-6.9,3.1-16.5-0.3-22.7-4.7c-6.1-4.4-10.7-10.6-15.9-16.2c-6.5-7-14.1-12.9-20.7-19.8C300.2,221.4,289.2,200.1,279.7,178.7z"/>
		<path class="st4" d="M283.1,189.1c4.1-15.9,10.8-30.9,19.8-43.9c20.9,16.3,38.9,37.9,50.5,63.6c11.5,25.7,17.3,54.6,16.7,83.4
			c-6.3,3.2-15-0.3-20.5-4.8c-5.6-4.6-9.7-10.9-14.4-16.6c-5.9-7.2-12.8-13.3-18.8-20.4C301.7,233,291.7,211,283.1,189.1z"/>
		<path class="st4" d="M325.6,155.5c-7.4-7.2-15.5-13.7-24-19.6c-9.9,12.7-17.3,27.3-21.9,42.8c1.2,2.7,2.4,5.3,3.7,8
			c2.8,2.7,6.3,4.8,9.9,6.4c5,2.2,10.8,3.4,16.1,4.6c2.2-15.2,6.9-29.9,14-43.5C324.3,154.9,324.9,155.3,325.6,155.5z"/>
		<path class="st3" d="M358.3,269.8c-13.8-41.5-42.6-77.2-80.1-99.6c-8.1,9.5-15.4,19.6-21.8,30.3c17.1,21.3,40.9,36.7,63.7,51.7
			c6.2,4.1,12.5,8.2,19.5,10.4C345.2,264.3,353.5,266.6,358.3,269.8z"/>
		<path class="st4" d="M358.3,269.8c-13.8-41.5-42.6-77.2-80.1-99.6c-8.1,9.5-15.4,19.6-21.8,30.3c17.1,21.3,40.9,36.7,63.7,51.7
			c6.2,4.1,12.5,8.2,19.5,10.4C345.2,264.3,353.5,266.6,358.3,269.8z"/>
		<path class="st4" d="M356.4,277.6c-13.8-41.5-42.6-77.2-80.1-99.6c-8.1,9.5-15.4,19.6-21.8,30.3c17.1,21.3,40.9,36.7,63.7,51.7
			c6.2,4.1,12.5,8.2,19.5,10.4C343.3,272.2,351.6,274.5,356.4,277.6z"/>
		<path class="st4" d="M299.7,225.7c0.9-11.1,4.4-22.1,10.2-31.7c-9.6-9.1-20.2-17.1-31.6-23.9c-8.1,9.5-15.4,19.6-21.8,30.3
			c6.6,8.2,14.2,15.6,22.4,22.4C285.7,225,292.9,226,299.7,225.7z"/>
		<path class="st3" d="M250.5,203.1c-12.3-19.5-32-34-53.8-41.2c-3.1,13.5-4.2,27.5-3.3,41.3c4,4.3,6.8,10.1,9.2,15.5
			c2.4,5.4,4.8,10.9,8.6,15.3c3.8,4.5,9.4,7.8,15.3,7.4c5.6-0.3,10.6-4.1,13.7-8.7c3.1-4.7,4.6-10.2,5.8-15.7
			C247.2,211.4,248.6,208.4,250.5,203.1z"/>
		<path class="st5" d="M211.9,168.3c11.6,11.7,19.8,26.6,23.3,42.7c4.6-4.1,8.4-9,10.6-14.5C236.9,184.7,225.1,175.1,211.9,168.3z"
			/>
		<path class="st4" d="M238.5,234.9c-4.7-12.4-9.7-24.6-16.1-36.1c-7.2-13-16.1-25.1-25.3-36.8c-0.2-0.1-0.3-0.1-0.5-0.2
			c-3.1,13.5-4.2,27.5-3.3,41.3c4,4.3,6.8,10.1,9.2,15.5c2.4,5.4,4.8,10.9,8.6,15.3c3.8,4.5,9.4,7.8,15.3,7.4
			C231.2,241.1,235.4,238.5,238.5,234.9z"/>
		<path class="st4" d="M223.9,205.8c-7.2-13-16.1-25.1-25.3-36.8c-0.2-0.1-0.3-0.1-0.5-0.2c-2.7,11.7-3.9,23.7-3.5,35.6
			c3.4,4.1,5.9,9.4,8,14.2c2.4,5.4,4.8,10.9,8.6,15.3c3.8,4.5,9.4,7.8,15.3,7.4c4.2-0.3,8.1-2.5,11.1-5.5
			C233.6,225.6,229.2,215.5,223.9,205.8z"/>
		<path class="st3" d="M223.9,205.8c-1.5-2.6-3-5.2-4.6-7.8c-5.1,2.9-9.7,7-13.1,11.8c1.8,6.9,6.5,14.3,11.5,19.5
			c1,1,2.1,2.1,3.6,2.2c1.4,0.1,2.7-0.8,3.7-1.7c2.9-2.6,5-6,6-9.7C228.8,215.3,226.5,210.5,223.9,205.8z"/>
		<path class="st6" d="M223.9,205.8c-1.5-2.6-3-5.2-4.6-7.8c-5.1,2.9-9.7,7-13.1,11.8c1.8,6.9,6.5,14.3,11.5,19.5
			c1,1,2.1,2.1,3.6,2.2c1.4,0.1,2.7-0.8,3.7-1.7c2.9-2.6,5-6,6-9.7C228.8,215.3,226.5,210.5,223.9,205.8z"/>
		<path class="st3" d="M162.3,220.7c0.3-9.7,2.2-19.4,5.7-28.5c14.8,1.1,29,6,40.6,15.2c11.3,9,14.3,25.1,17.8,39.1
			c1,4.1-0.5,8.2-3.2,11.5c-4,4.8-9.8,8-16,8.8c-6.2,0.8-12.6-0.8-17.7-4.4c-3.9-2.8-6.9-6.6-9.7-10.5
			C173,242.4,161.9,232.5,162.3,220.7z"/>
		<path class="st5" d="M208.6,207.5c-6.8-5.4-14.6-9.3-22.8-11.9c17.4,14.7,28.6,36.7,29.5,59.5c4.5-3.4,8-7.9,10-13
			C222.1,229.2,218.7,215.5,208.6,207.5z"/>
		<path class="st4" d="M168.9,192.3c-0.3,0-0.7-0.1-1-0.1c-3.5,9.1-5.4,18.8-5.7,28.5c-0.3,11.7,10.7,21.7,17.5,31.2
			c2.8,3.9,5.8,7.7,9.7,10.5c5.1,3.6,11.5,5.2,17.7,4.4c4.4-0.6,8.7-2.4,12.2-5.1C206.6,235.9,189.5,212.4,168.9,192.3z"/>
		<g>
			<path class="st4" d="M162.3,222.4c0-0.6-0.1-1.1,0-1.7C162.3,221.3,162.3,221.9,162.3,222.4z"/>
			<path class="st4" d="M162.5,224.3c-0.1-0.5-0.2-1.1-0.2-1.6C162.4,223.2,162.4,223.8,162.5,224.3z"/>
			<path class="st4" d="M218.2,262.5c-12.5-23.9-28.8-45.9-48.1-64.7c-0.3,0-0.7-0.1-1-0.1c-3.5,9.1-5.4,18.8-5.7,28.5
				c0,0.6,0,1.1,0,1.7c3,8.7,11,16.5,16.4,24c2.8,3.9,5.8,7.7,9.7,10.5c5.1,3.6,11.5,5.2,17.7,4.4c4.4-0.6,8.7-2.4,12.2-5.1
				C219,262,218.6,262.3,218.2,262.5z"/>
			<path class="st4" d="M163.4,227.9c-0.4-1.1-0.7-2.3-0.9-3.4C162.8,225.6,163,226.8,163.4,227.9z"/>
		</g>
		<path class="st3" d="M434.9,261.5c10.5-13.6,27.7-21.8,44.9-21.1c2.8,14.6,1.6,30.2-3,44.4c-9.1-0.4-18.3-1.1-26.6-4.8
			C441.8,276.2,434.9,270.6,434.9,261.5z"/>
		<path class="st5" d="M476.5,240.4c1.4,15.6-4.4,31.8-15.5,42.8c5.2,1,10.5,1.3,15.8,1.5c4.5-14.2,5.8-29.7,3-44.4
			C478.6,240.3,477.5,240.3,476.5,240.4z"/>
		<path class="st3" d="M131.7,270.5c-1.7-19.1-2.1-38.2-1.2-57.3c15.1,0.2,31.5,1.9,45.9,6.4c10.3,14.7,15.9,31.4,16.8,49.3
			C174.4,276.7,151.1,276.9,131.7,270.5z"/>
		<path class="st5" d="M176.5,219.6c-6.6-2.1-13.6-3.6-20.7-4.6c6.2,4.3,11.6,9.9,16.1,16c7.7,10.5,12.8,22.6,17.8,34.7
			c1.1-1.3,2.1-2.6,3.1-3.9C190.8,246.6,185.4,232.3,176.5,219.6z"/>
		<path class="st4" d="M130.6,213.2c-1,19.1-0.6,38.3,1.2,57.3c15,5,32.3,5.9,48.1,2.6c3.6-1.5,6.9-3.2,10.1-5.2
			C175.1,245.1,154.5,226.1,130.6,213.2z"/>
		<path class="st4" d="M179.8,273.1c3.2-1.3,6.3-2.9,9.2-4.7c-14.5-20.7-33.9-37.9-56.1-50c-0.9,17.5-0.6,35.2,0.8,52.7
			C148.2,275.5,164.7,276.3,179.8,273.1z"/>
		<g class="st4">
			<path d="M154.3,274.8c0.8,0.1,1.6,0.1,2.3,0.1c1-13.6,1-27.2,0-40.8c-0.8-0.7-1.7-1.3-2.5-1.9
				C155.3,246.4,155.3,260.7,154.3,274.8z"/>
			<path d="M158.5,275c0.9,0,1.8,0,2.7,0c0.8-12.3,0.9-24.7,0.2-37c-0.9-0.8-1.9-1.6-2.8-2.3C159.4,248.8,159.4,261.9,158.5,275z"/>
			<path d="M150.1,274.5c0.7,0.1,1.3,0.1,2,0.2c1.1-14.7,1-29.4-0.2-44.1c-0.7-0.5-1.4-1-2.1-1.5
				C151.1,244.1,151.2,259.3,150.1,274.5z"/>
			<path d="M166.9,274.8c1.1-0.1,2.2-0.2,3.4-0.3c0.6-9.3,0.7-18.7,0.4-28c-1.1-1.1-2.3-2.2-3.5-3.3
				C167.6,253.7,167.5,264.3,166.9,274.8z"/>
			<path d="M162.7,275c1,0,2-0.1,3-0.1c0.7-10.9,0.8-21.9,0.3-32.8c-1-1-2.1-1.9-3.2-2.8C163.5,251.2,163.5,263.1,162.7,275z"/>
			<path d="M179.3,273.2c0.3-5.6,0.4-11.2,0.4-16.8c-1.3-1.6-2.7-3.1-4.1-4.6c0.2,7.4,0.1,14.7-0.3,22.1
				C176.6,273.7,178,273.4,179.3,273.2z"/>
			<path d="M137.7,272.2c0.3,0.1,0.7,0.2,1,0.2c1.3-17,1-34.2-0.8-51.2c-0.4-0.2-0.7-0.4-1.1-0.6C138.7,237.8,139,255.1,137.7,272.2
				z"/>
			<path d="M174.8,274c0.4-7.5,0.6-15.1,0.4-22.7c-1.2-1.3-2.5-2.7-3.8-4c0.3,9,0.2,18.1-0.3,27.1
				C172.3,274.3,173.6,274.2,174.8,274z"/>
			<path d="M141.8,273.2c0.4,0.1,0.9,0.2,1.3,0.2c1.2-16.4,1-32.9-0.6-49.2c-0.5-0.3-1-0.6-1.4-0.9
				C142.8,239.8,143.1,256.6,141.8,273.2z"/>
			<path d="M146,273.9c0.6,0.1,1.1,0.2,1.7,0.3c1.2-15.6,1.1-31.3-0.3-46.9c-0.6-0.4-1.2-0.8-1.8-1.2C147,242,147.1,258,146,273.9z"
				/>
		</g>
		<path class="st3" d="M212.9,260.1c4.4-25.2,15.6-49.1,31.9-68.7c13-1.5,26.5,1.9,38.2,7.7c11.7,5.8,22,14.2,31.3,23.3
			c13.8,13.5,25.6,28.9,35.2,45.7c-22.6,5.6-47-0.6-70.3-1.1c-11-0.2-22.1,0.7-33.1,0.7C235.2,267.7,223.2,264.1,212.9,260.1z"/>
		<path class="st7" d="M340.6,269.7c-10.9-18.4-26.4-33.9-43.6-46.9c-16-12.1-33.5-22.1-51.2-31.5c-0.3,0-0.6,0-0.9,0.1
			c-16.4,19.6-27.5,43.5-31.9,68.7c10.3,4,22.3,7.6,33.3,7.6s22.1-0.9,33.1-0.7C299.6,267.3,320.6,272.1,340.6,269.7z"/>
		<g class="st5">
			<path d="M242.7,267.6c0.8-23.7,0.2-47.5-1.8-71.2c-0.9,1.1-1.7,2.3-2.5,3.4c1.8,22.4,2.3,45,1.5,67.5
				C240.8,267.4,241.8,267.5,242.7,267.6z"/>
			<path d="M252.1,267.6c0.8-24.7,0-49.5-2.2-74.2c-1.2-0.7-2.5-1.3-3.7-2c2.4,25.3,3.2,50.8,2.4,76.2
				C249.8,267.7,250.9,267.7,252.1,267.6z"/>
			<path d="M278.8,210.3c-1.9-1.2-3.9-2.4-5.8-3.6c1.6,20.1,2.1,40.2,1.7,60.3c1.6,0,3.1,0,4.7,0c0.3,0,0.6,0,0.9,0
				C280.6,248.1,280.2,229.1,278.8,210.3z"/>
			<path d="M261.5,267.3c0.6-22.9,0-45.8-2-68.5c-1.5-0.8-2.9-1.6-4.4-2.5c2.1,23.6,2.9,47.4,2.2,71.2
				C258.7,267.4,260.1,267.4,261.5,267.3z"/>
			<path d="M231.3,265.8c0.7,0.2,1.4,0.3,2.1,0.4c0.7-19.2,0.4-38.5-0.8-57.7c-0.6,1-1.3,2.1-1.9,3.2
				C231.7,229.7,231.9,247.8,231.3,265.8z"/>
			<path d="M317.6,270c0.2-9.9,0.1-19.7-0.2-29.6c-2.8-2.8-5.7-5.5-8.7-8.1c0.6,12.3,0.8,24.7,0.6,37
				C312.1,269.6,314.9,269.8,317.6,270z"/>
			<path d="M308.3,269.2c0.2-12.6,0-25.1-0.5-37.7c-2.6-2.3-5.3-4.4-8-6.6c0.8,14.5,1.1,29,0.9,43.5
				C303.2,268.7,305.7,269,308.3,269.2z"/>
			<path d="M289.6,267.5c0.3-16.9,0-33.9-1.1-50.8c-2.2-1.5-4.4-3-6.6-4.4c1.3,18.2,1.8,36.5,1.4,54.8
				C285.4,267.2,287.5,267.3,289.6,267.5z"/>
			<path d="M298.9,268.3c0.3-14.9,0-29.8-0.8-44.6c-0.4-0.3-0.7-0.6-1.1-0.9c-2-1.5-4.1-3-6.2-4.5c1.1,16.4,1.4,32.9,1.1,49.4
				C294.3,267.9,296.6,268.1,298.9,268.3z"/>
			<path d="M270.9,267c0.5-20.9,0-41.8-1.7-62.6c-1.7-1-3.4-2-5.2-3c1.9,21.9,2.5,43.9,2,65.8C267.6,267.1,269.2,267,270.9,267z"/>
		</g>
		<path class="st4" d="M244.9,196.4c0.3,0,0.6-0.1,0.9-0.1c17.7,9.5,35.2,19.4,51.2,31.5c15.6,11.8,29.9,25.8,40.6,42.1
			c1-0.1,2-0.2,3-0.3c-10.9-18.4-26.4-33.9-43.6-46.9c-16-12.1-33.5-22.1-51.2-31.5c-0.3,0-0.6,0-0.9,0.1
			c-16.4,19.6-27.5,43.5-31.9,68.7c0.3,0.1,0.6,0.2,0.9,0.4C218.8,237,229.5,214.8,244.9,196.4z"/>
		<path class="st3" d="M412.2,282.6c1.8-13.9,5.3-27.6,10.4-40.6c18.7,6.3,35.2,19.8,43.5,37.7C449,287.8,429.4,290.5,412.2,282.6z"
			/>
		<path class="st4" d="M456.8,283.4c-4.4-9-10.3-17.3-17-24.8c-5.1-5.8-10.7-11.2-16.5-16.4c-0.3-0.1-0.5-0.2-0.8-0.3
			c-5,13.1-8.5,26.7-10.4,40.6C426.3,289.1,442.1,288.4,456.8,283.4z"/>
		<path class="st7" d="M423.8,247.7c0.3,0.1,0.5,0.2,0.8,0.3c5.8,5.2,11.3,10.6,16.5,16.4c5.3,6.1,10.2,12.6,14.2,19.6
			c0.5-0.2,1-0.3,1.6-0.5c-4.4-9-10.3-17.3-17-24.8c-5.1-5.8-10.7-11.2-16.5-16.4c-0.3-0.1-0.5-0.2-0.8-0.3
			c-5,13.1-8.5,26.7-10.4,40.6c0.6,0.3,1.3,0.6,1.9,0.8C416.1,271.2,419.4,259.2,423.8,247.7z"/>
		<path class="st3" d="M183.3,211.7c-2.4,2.5-4.6,5.3-6.5,8.2c9.2,13.3,14.6,28.2,16.2,44.1c1.4,0.4,2.9,0.6,4.3,0.6
			c2.5,0,4.9-0.5,7.3-1c3.2-0.7,6-0.7,9.1-1.4c1-1.5,1.5-3.3,1.6-5.1C206.3,240.9,195.5,225.7,183.3,211.7z"/>
		<path class="st6" d="M183.3,211.7c-2.4,2.5-4.6,5.3-6.5,8.2c9.2,13.3,14.6,28.2,16.2,44.1c1.4,0.4,2.9,0.6,4.3,0.6
			c2.5,0,4.9-0.5,7.3-1c3.2-0.7,6-0.7,9.1-1.4c1-1.5,1.5-3.3,1.6-5.1C206.3,240.9,195.5,225.7,183.3,211.7z"/>
		<path class="st5" d="M297,227.9c-16-12.1-33.5-22.1-51.2-31.5c-0.3,0-0.6,0-0.9,0.1c-14.6,17.5-25.1,38.5-30.3,60.7h8.8
			c5.1-19.4,15.8-37.4,30.5-51.1c28.5,12.8,54.9,32.5,75,56.5c0.7-0.7,1.2-1.5,1.6-2.3C321,248,309.4,237.3,297,227.9z"/>
		<polygon class="st8" points="107.7,296.9 107.7,273.8 114.3,273.8 114.3,266.7 177.9,266.7 188.2,260.8 320.2,260.8 330.1,255.1 
			340.5,255.1 363.4,268.3 371.1,268.3 375.6,276 471.4,276 488.2,286.9 488.2,296.9 		"/>
		<rect x="203.5" y="267" class="st3" width="15.2" height="3.4"/>
		<rect x="189.5" y="278.5" class="st3" width="116.3" height="3.4"/>
		<rect x="189.5" y="290.1" class="st3" width="116.3" height="3.4"/>
		<rect x="221.8" y="267" class="st3" width="15.2" height="3.4"/>
		<rect x="240.1" y="267" class="st3" width="15.2" height="3.4"/>
		<rect x="258.4" y="267" class="st3" width="15.2" height="3.4"/>
		<rect x="276.7" y="267" class="st3" width="15.2" height="3.4"/>
		<rect x="295" y="267" class="st3" width="15.2" height="3.4"/>
		<path class="st8" d="M94.7,286.5h31.1v10.4H94.7c-2.9,0-5.2-2.3-5.2-5.2l0,0C89.5,288.9,91.9,286.5,94.7,286.5z"/>
		<path class="st8" d="M501.2,296.9H470v-10.4h31.1c2.9,0,5.2,2.3,5.2,5.2l0,0C506.4,294.6,504,296.9,501.2,296.9z"/>
	</g>
</g>
<g class="st9">
	<g>
		<path class="st10" d="M180.6,301.1c0-2.3-1.9-4.1-4.1-4.1h-15.3c-2.3,0-4.1,1.9-4.1,4.1c0,2.3,1.9,4.1,4.1,4.1h15.3
			C178.7,305.2,180.6,303.4,180.6,301.1z"/>
		<path class="st10" d="M102.5,354.9h54.7c2.3,0,4.1-1.9,4.1-4.1s-1.9-4.1-4.1-4.1h-6.1c-2.3,0-4.1-1.9-4.1-4.1s1.9-4.1,4.1-4.1
			h14.6c2.3,0,4.1-1.9,4.1-4.1s-1.9-4.1-4.1-4.1h-25.5c-2.3,0-4.1-1.9-4.1-4.1c0-2.3,1.9-4.1,4.1-4.1h3.2h26.2
			c2.3,0,4.1-1.9,4.1-4.1c0-2.3-1.9-4.1-4.1-4.1h-26.2h-26c-2.3,0-4.1-1.9-4.1-4.1s1.9-4.1,4.1-4.1h20.4c2.3,0,4.1-1.9,4.1-4.1
			c0-2.3-1.9-4.1-4.1-4.1H64.4c-2.3,0-4.1,1.9-4.1,4.1c0,2.3,1.9,4.1,4.1,4.1h13.8c2.3,0,4.1,1.9,4.1,4.1s-1.9,4.1-4.1,4.1h-8.1
			H47.9v24.9h1.2c2.3,0,4.1,1.9,4.1,4.1s-1.9,4.1-4.1,4.1h-1.2v8.3h36H102.5z M116.1,342.5c0,2.3-1.9,4.1-4.1,4.1h-9.4H88.3
			c-2.3,0-4.1-1.9-4.1-4.1s1.9-4.1,4.1-4.1h1.9h2.2H112C114.3,338.4,116.1,340.2,116.1,342.5z M77.8,325.9c0-2.3,1.9-4.1,4.1-4.1
			h14.4h4.8c2.3,0,4.1,1.9,4.1,4.1c0,2.3-1.9,4.1-4.1,4.1h-8.6h-2.2h-8.3C79.6,330.1,77.8,328.2,77.8,325.9z"/>
		<path class="st10" d="M190.8,334.2c0-2.3-1.9-4.1-4.1-4.1h-4.9c-2.3,0-4.1,1.9-4.1,4.1s1.9,4.1,4.1,4.1h4.9
			C189,338.4,190.8,336.5,190.8,334.2z"/>
		<path class="st10" d="M201.3,346.7h-15.3c-2.3,0-4.1,1.9-4.1,4.1s1.9,4.1,4.1,4.1h15.3c2.3,0,4.1-1.9,4.1-4.1
			S203.6,346.7,201.3,346.7z"/>
		<path class="st10" d="M311.7,338.4h8.1h38.5c2.3,0,4.1-1.9,4.1-4.1s-1.9-4.1-4.1-4.1h-11.2c-2.3,0-4.1-1.9-4.1-4.1
			c0-2.3,1.9-4.1,4.1-4.1H373c2.3,0,4.1-1.9,4.1-4.1c0-2.3-1.9-4.1-4.1-4.1h-32.2c-2.3,0-4.1-1.9-4.1-4.1s1.9-4.1,4.1-4.1h19.9
			c2.3,0,4.1-1.9,4.1-4.1c0-2.3-1.9-4.1-4.1-4.1H306h-18.6h-54.7c-2.3,0-4.1,1.9-4.1,4.1c0,2.3,1.9,4.1,4.1,4.1h6.1
			c2.3,0,4.1,1.9,4.1,4.1s-1.9,4.1-4.1,4.1h-14.6c-2.3,0-4.1,1.9-4.1,4.1c0,2.3,1.9,4.1,4.1,4.1h25.5c2.3,0,4.1,1.9,4.1,4.1
			c0,2.3-1.9,4.1-4.1,4.1h-3.2c-2.3,0-4.1,1.9-4.1,4.1s1.9,4.1,4.1,4.1h26c2.3,0,4.1,1.9,4.1,4.1s-1.9,4.1-4.1,4.1h-15.2h-32.7
			c-2.3,0-4.1,1.9-4.1,4.1s1.9,4.1,4.1,4.1h32.7H298h32.7c2.3,0,4.1-1.9,4.1-4.1s-1.9-4.1-4.1-4.1h-18.9c-2.3,0-4.1-1.9-4.1-4.1
			S309.4,338.4,311.7,338.4z M273.8,309.4c0-2.3,1.9-4.1,4.1-4.1h9.4h14.3c2.3,0,4.1,1.9,4.1,4.1s-1.9,4.1-4.1,4.1h-1.9h-2.2H278
			C275.7,313.5,273.8,311.7,273.8,309.4z M288.9,330.1c-2.3,0-4.1-1.9-4.1-4.1c0-2.3,1.9-4.1,4.1-4.1h8.6h2.2h8.3
			c2.3,0,4.1,1.9,4.1,4.1c0,2.3-1.9,4.1-4.1,4.1H288.9z"/>
		<path class="st10" d="M408.8,334.2L408.8,334.2c0-2.3-1.9-4.1-4.1-4.1h-26.9c-2.3,0-4.1,1.9-4.1,4.1l0,0c0,2.3,1.9,4.1,4.1,4.1
			h26.9C407,338.4,408.8,336.5,408.8,334.2z"/>
		<path class="st10" d="M208.2,313.5h-4.9c-2.3,0-4.1,1.9-4.1,4.1s1.9,4.1,4.1,4.1h4.9c2.3,0,4.1-1.9,4.1-4.1
			S210.5,313.5,208.2,313.5z"/>
		<path class="st10" d="M390.8,305.2h15.3c2.3,0,4.1-1.9,4.1-4.1c0-2.3-1.9-4.1-4.1-4.1h-15.3c-2.3,0-4.1,1.9-4.1,4.1
			C386.6,303.4,388.5,305.2,390.8,305.2z"/>
		<path class="st10" d="M369.5,346.7h-4.9c-2.3,0-4.1,1.9-4.1,4.1s1.9,4.1,4.1,4.1h4.9c2.3,0,4.1-1.9,4.1-4.1
			S371.8,346.7,369.5,346.7z"/>
		<path class="st10" d="M544.2,296.9h-40.8H471h-40.8c-2.3,0-4.1,1.9-4.1,4.1c0,2.3,1.9,4.1,4.1,4.1h17.1c2.3,0,4.1,1.9,4.1,4.1
			s-1.9,4.1-4.1,4.1h-29.8c-2.3,0-4.1,1.9-4.1,4.1c0,2.3,1.9,4.1,4.1,4.1h49.9c2.3,0,4.1,1.9,4.1,4.1c0,2.3-1.9,4.1-4.1,4.1h-9.1
			h-28c-2.3,0-4.1,1.9-4.1,4.1s1.9,4.1,4.1,4.1h14.6c2.3,0,4.1,1.9,4.1,4.1s-1.9,4.1-4.1,4.1h-6.5h-27.7c-2.3,0-4.1,1.9-4.1,4.1
			s1.9,4.1,4.1,4.1h27.7h45.6h9.4h18.2h36.4v-8.3h-1.2c-2.3,0-4.1-1.9-4.1-4.1s1.9-4.1,4.1-4.1h1.2v-24.9h-12.3
			c-2.3,0-4.1-1.9-4.1-4.1s1.9-4.1,4.1-4.1h8.6c1.6,0,3.1-1,3.7-2.4v-3.6C547.3,297.9,545.9,296.9,544.2,296.9z M486.4,305.2h10.1
			c2.3,0,4.1,1.9,4.1,4.1s-1.9,4.1-4.1,4.1h-5.5c-0.1,0-0.1,0-0.2,0c-0.1,0-0.1,0-0.2,0h-4.3c-2.3,0-4.1-1.9-4.1-4.1
			S484.1,305.2,486.4,305.2z M491.1,321.8h-0.3c0.1,0,0.1,0,0.2,0C490.9,321.8,491,321.8,491.1,321.8z M507.6,346.7h-14.3h-9.4h0
			c-2.3,0-4.1-1.9-4.1-4.1s1.9-4.1,4.1-4.1h19.5h2.2h1.9c2.3,0,4.1,1.9,4.1,4.1S509.9,346.7,507.6,346.7z M533,325.9
			c0,2.3-1.9,4.1-4.1,4.1h-22.4c-2.3,0-4.1-1.9-4.1-4.1c0-2.3,1.9-4.1,4.1-4.1h22.4C531.1,321.8,533,323.7,533,325.9z"/>
	</g>
</g>
<g>
	<g>
		<g>
			<path class="st11" d="M398.1,140.4c-15.4-5.5-31-10-46.8-13.5c3.1-14.4,6.3-28.7,9.4-43.1c17.7,3.9,35.1,8.9,52.3,15.1
				c-5.6,5.8-11.1,11.7-16.4,17.6C397.3,124.5,397.8,132.5,398.1,140.4z"/>
			<path class="st9" d="M398.1,140.4c-15.4-5.5-31-10-46.8-13.5c3.1-14.4,6.3-28.7,9.4-43.1c17.7,3.9,35.1,8.9,52.3,15.1
				c-5.6,5.8-11.1,11.7-16.4,17.6C397.3,124.5,397.8,132.5,398.1,140.4z"/>
			<path class="st9" d="M382.3,112.1c-10.8,4.5-21.1,9.5-31,14.8c1.6-7.2,3.2-14.4,4.8-21.6C364.8,107.3,373.6,109.5,382.3,112.1z"
				/>
		</g>
		<g>
			<path class="st11" d="M143.8,140.4c15.4-5.5,31-10,46.8-13.5c-3.1-14.4-6.3-28.7-9.4-43.1c-17.7,3.9-35.1,8.9-52.3,15.1
				c5.6,5.8,11.1,11.7,16.4,17.6C144.6,124.5,144.1,132.5,143.8,140.4z"/>
			<path class="st9" d="M143.8,140.4c15.4-5.5,31-10,46.8-13.5c-3.1-14.4-6.3-28.7-9.4-43.1c-17.7,3.9-35.1,8.9-52.3,15.1
				c5.6,5.8,11.1,11.7,16.4,17.6C144.6,124.5,144.1,132.5,143.8,140.4z"/>
			<path class="st9" d="M159.6,112.1c10.8,4.5,21.1,9.5,31,14.8c-1.6-7.2-3.2-14.4-4.8-21.6C177.1,107.3,168.3,109.5,159.6,112.1z"
				/>
		</g>
		<path class="st11" d="M382.3,112.1c-72.7-21.2-149.9-21.2-222.6,0c-4.1-14.1-8.2-28.2-12.3-42.3c80.7-23.5,166.5-23.5,247.3,0
			C390.5,83.9,386.4,98,382.3,112.1z"/>
		<g>
			<path class="st3" d="M197.2,96.6c-1.7,0.3-3.5,0.7-5.2,1c-0.7-1.7-1.3-3.5-2-5.2c-2.1,0.4-4.3,0.9-6.4,1.3
				c0.1,1.9,0.2,3.7,0.3,5.6c-1.6,0.3-3.1,0.7-4.7,1.1c-0.6-10.3-1-20.5-1.3-30.9c2.7-0.6,5.4-1.2,8.1-1.7
				C189.9,77.4,193.6,87,197.2,96.6z M183.4,89.5c1.7-0.4,3.4-0.7,5.1-1.1c-1.8-4.8-3.7-9.7-5.6-14.5c0,0-0.1,0-0.1,0
				C182.9,79.2,183.2,84.4,183.4,89.5z"/>
			<path class="st3" d="M203.5,64.7c1.2,7.7,2.4,15.4,3.6,23.1c0.3,2.1,1.5,2.7,3.2,2.5c1.7-0.2,2.6-1.2,2.3-3.3
				c-1.1-7.7-2.2-15.5-3.3-23.2c1.8-0.3,3.5-0.5,5.3-0.7c1,7.6,2,15.3,3,22.9c0.6,4.8-1.7,7.9-6.7,8.7c-5.1,0.8-8.1-1.5-9-6.3
				c-1.3-7.6-2.6-15.2-3.9-22.8C199.8,65.3,201.7,65,203.5,64.7z"/>
			<path class="st3" d="M229.9,61c5.5-0.5,8.5,2.1,8.8,6.9c0,0.3,0,0.6,0.1,1c-1.7,0.1-3.5,0.3-5.2,0.4c0-0.4-0.1-0.8-0.1-1.3
				c-0.2-2.2-1.3-2.9-3-2.7c-1.8,0.2-2.7,1.1-2.5,3.2c0.2,2.2,1.5,3.7,5.3,6.1c4.8,3.1,6.4,5.5,6.7,9c0.4,4.9-2.1,7.8-7.2,8.3
				c-5.1,0.5-8-1.9-8.6-6.8c-0.1-0.6-0.1-1.2-0.2-1.9c1.7-0.2,3.3-0.4,5-0.5c0.1,0.7,0.1,1.4,0.2,2.2c0.2,2.2,1.3,2.8,3,2.7
				c1.7-0.2,2.6-1,2.5-3.2c-0.2-2.2-1.4-3.8-5.2-6.1c-4.8-3-6.6-5.4-7-8.8C222,64.6,224.4,61.5,229.9,61z"/>
			<path class="st3" d="M243.8,60.3c5.8-0.4,11.5-0.6,17.3-0.7c0,1.4,0.1,2.9,0.1,4.3c-1.9,0-3.9,0.1-5.8,0.2
				c0.3,8.7,0.6,17.3,0.9,26c-1.7,0.1-3.5,0.1-5.2,0.2c-0.4-8.7-0.8-17.3-1.3-26c-1.9,0.1-3.9,0.2-5.8,0.3
				C244,63.2,243.9,61.7,243.8,60.3z"/>
			<path class="st3" d="M278.8,89.9c-0.3-0.8-0.5-1.3-0.4-3.7c0-1.6,0.1-3.2,0.1-4.8c0.1-2.8-1-3.9-3.4-3.9c-0.6,0-1.2,0-1.9,0
				c0,4.1,0,8.2-0.1,12.4c-1.7,0-3.5,0-5.2,0c-0.1-10.1-0.2-20.3-0.2-30.4c2.8,0,5.6,0,8.5,0c5.8,0.1,8.2,2.5,8.1,7.2
				c0,0.8,0,1.6-0.1,2.4c-0.1,3.1-1.3,5.1-3.7,6c0,0,0,0.1,0,0.1c2.7,1.1,3.5,3.4,3.4,6.5c0,1.6-0.1,3.1-0.1,4.7
				c0,1.5,0,2.6,0.5,3.7C282.3,90,280.6,89.9,278.8,89.9z M273.3,63.8c0,3.1,0,6.2-0.1,9.3c0.7,0,1.4,0,2.1,0c2,0,3.3-0.7,3.3-3.2
				c0-1,0-2,0.1-3c0-2.2-0.8-3.1-2.8-3.2C275,63.8,274.1,63.8,273.3,63.8z"/>
			<path class="st3" d="M307.6,91.5c-1.7-0.2-3.5-0.3-5.2-0.4c-0.2-1.9-0.3-3.7-0.5-5.6c-2.2-0.2-4.3-0.3-6.5-0.4
				c-0.4,1.8-0.8,3.6-1.2,5.4c-1.6-0.1-3.2-0.2-4.8-0.2c2.2-10,4.6-20.1,7.1-30c2.7,0.2,5.5,0.3,8.2,0.6
				C305.8,71,306.7,81.2,307.6,91.5z M296.3,80.9c1.7,0.1,3.4,0.2,5.1,0.3c-0.5-5.2-1-10.3-1.5-15.5c0,0-0.1,0-0.1,0
				C298.6,70.8,297.5,75.9,296.3,80.9z"/>
			<path class="st3" d="M317,61.9c1.9,0.2,3.7,0.4,5.6,0.6c-1,8.6-2.1,17.2-3.1,25.9c2.9,0.3,5.7,0.7,8.6,1.1
				c-0.2,1.4-0.4,2.9-0.6,4.3c-4.6-0.6-9.1-1.2-13.7-1.7C314.8,82,315.9,71.9,317,61.9z"/>
			<path class="st3" d="M338.2,64.7c1.9,0.3,3.7,0.6,5.6,0.9c-1.7,10-3.4,20-5.1,29.9c-1.7-0.3-3.4-0.6-5.2-0.8
				C335.1,84.7,336.6,74.7,338.2,64.7z"/>
			<path class="st3" d="M362.7,100.4c-1.7-0.4-3.4-0.8-5.2-1.2c0.1-1.9,0.2-3.7,0.3-5.6c-2.1-0.5-4.3-0.9-6.4-1.3
				c-0.7,1.7-1.3,3.5-2,5.2c-1.6-0.3-3.1-0.6-4.7-0.9c3.6-9.6,7.3-19.2,11.2-28.8c2.7,0.5,5.4,1.1,8.1,1.7
				C363.7,79.8,363.3,90.1,362.7,100.4z M353,88.4c1.7,0.3,3.4,0.7,5.1,1.1c0.3-5.2,0.5-10.4,0.7-15.6c0,0-0.1,0-0.1,0
				C356.7,78.7,354.8,83.5,353,88.4z"/>
		</g>
	</g>
</g>
</svg>
