<?xml version="1.0" encoding="utf-8"?>
<!-- Generator: Adobe Illustrator 24.3.0, SVG Export Plug-In . SVG Version: 6.00 Build 0)  -->
<svg version="1.1" id="Layer_1" xmlns="http://www.w3.org/2000/svg" xmlns:xlink="http://www.w3.org/1999/xlink" x="0px" y="0px"
	 viewBox="0 0 864 864" style="enable-background:new 0 0 864 864;" xml:space="preserve">
<style type="text/css">
	.st0{fill:#EB96C0;}
	.st1{fill:#E6007F;}
	.st2{fill:#57C4EF;}
	.st3{fill:#831F82;}
	.st4{fill:#EDE300;}
</style>
<g>
	<path class="st0" d="M364.1,234.3c4.1,20.6,6.6,49.7,6.6,70.8c0,17.1,1.4,69-24,69c-13.3,0-20.6-5.5-25.8-14.2
		c-4.8-11.2-3.9-28.6,8.2-33.8c9.1-4.1,24.7-0.2,22.2,12.3c-1.8,8.5-15.5,13.3-18.5,3.4c-2.7,1.1-5.5,2.3-8.2,3.7
		c7.3,24.7,45.9,2.5,33.8-19.4c-9.1-16.7-34.3-10.7-43.6,2.1c-6.4,8.5-8.9,24.5-3.7,33.1c0,0.2,0,0.5,0.2,0.5
		c5.9,12.1,16.9,21.3,33.1,21.3c38.6,0,44.6-40,44.6-70.4c0-23.1-3.7-54.3-6.6-77.2L364.1,234.3z"/>
	<path class="st0" d="M431.4,233.8c-27,0-39,34-39,56.3s12,56.1,39,56.1c27,0,39-33.8,39-56.1C470.4,267.8,458.4,233.8,431.4,233.8z
		 M432.5,333.5c-17.5,0-22.2-32.9-22.2-45.1c0-16.9,2.4-42.2,24.6-42.2c3.4,0,6.4,0.6,9,1.7c-26.8,1.1-38.1,43.4-7.5,48.2
		c12.6,1.9,30-24,15.2-29.7c-2.1-0.8-4.5-1.1-6.8-1.7c-0.6,2.4-1.1,4.7-1.9,7.1l5.4,1.3c4.3,7.5-7.5,19.9-15.4,14.6
		c-19.9-13.1,0-36.6,18.4-31.7c8.6,10.9,10.1,23.7,10.1,33.6C461.6,308.3,455.4,333.5,432.5,333.5z"/>
	<path class="st0" d="M551.3,300.6c0-21,0.8-42.2,0.8-63.3l-7.5,0.2c-1.1,22.5-0.8,43.2-0.8,63.8c0,3.9,0,7.7-0.4,11.3
		c-1.1,9.4-18,28.5-28,28.5c-19.1,0-20.5-46.9-20.5-59.9c0-15.2,1.1-30.6,1.3-45.8l-16.5,0.6c-0.4,16-2.1,31.7-2.1,47.7
		c0,21,4.1,68,33.4,68c13.9,0,27-10.7,33.6-22.5c0,14.5-0.2,22.2-1.9,30c-3,14.3-21,35.3-34.9,23.3c-4.5-4.1-5.1-10.9-1.3-15.4
		c3-3.6,16.1-3.6,14.6,1.3l-0.4,0.6l7.1,0.2c0.8-3.8-0.4-7.9-4.5-9.8c-20.5-9.8-33.8,11.8-21,28.3c14.5,16.9,40.7,0.2,46.4-21.8
		c3-8.8,3.4-23.1,3.4-33.6C552.3,321.3,551.3,310,551.3,300.6z"/>
</g>
<g>
	<polygon class="st1" points="319,433.7 319,426.9 319.3,376.9 304.3,385.1 304.1,424.5 303.9,432 303.4,498.1 357.8,497.5 
		357.8,490 318.4,490.9 	"/>
	<path class="st1" d="M393.3,388.2c-27,0-39,34-39,56.3s12,56.1,39,56.1c27,0,39-33.8,39-56.1S420.4,388.2,393.3,388.2z
		 M394.5,487.9c-17.5,0-22.2-32.9-22.2-45.1c0-16.9,2.4-42.2,24.6-42.2c3.4,0,6.4,0.6,9,1.7c-26.8,1.1-38.1,43.4-7.5,48.2
		c12.6,1.9,30-24,15.2-29.7c-2.1-0.8-4.5-1.1-6.8-1.7c-0.6,2.4-1.1,4.7-1.9,7.1l5.4,1.3c4.3,7.5-7.5,19.9-15.4,14.6
		c-19.9-13.1,0-36.6,18.4-31.7c8.6,10.9,10.1,23.7,10.1,33.6C423.6,462.7,417.4,487.9,394.5,487.9z"/>
	<polygon class="st1" points="471.4,483.7 446,361.6 431.4,364.6 459.8,501.2 474.8,501.2 512.2,392.9 505,390.2 	"/>
	<path class="st1" d="M588.4,449.7c0.2-8.6,0.6-15,0.6-21.4c0-19-7.3-44.1-30.4-44.1c-31.7,0-40.9,37-40.9,62.5
		c0,27.2,7.7,59.9,41.1,59.9c17.6,0,32.3-25.2,18.4-38.3c-19.5-19.1-39.8,13.1-24,22.2c6.9,3.8,16.9,1.1,16.9-7.5l-7.1,0.6v0.9
		c-7.5,4.9-8.8-9.8-4.9-13.5c9.2-8.4,21,9.8,15.4,17.5c-3,5.8-7.9,10.5-15.2,10.5c-21.2,0-25.9-33.8-26.1-49.6
		C552.1,449.9,570.7,451.8,588.4,449.7z M532.2,441.9c0.8-14.8,7.9-50.1,27.2-50.1c15.8,0,18.4,20.7,18.4,32.7
		c0,6-0.4,11.8-0.8,17.8C561.2,443,546.7,442.2,532.2,441.9z"/>
</g>
<g>
	<path class="st2" d="M273,490.1h-15l-1.1,131.6h15l0.2-48.1c25,0.2,44.1-16.1,44.1-41.7C316.2,507,297.6,490.1,273,490.1z
		 M293.1,560.1c-2.6,1.3-5.4,2.3-8.4,1.9c-4.1-0.8-7.7-9.9-2.3-17.5c3.8-5.1,11.1-7.5,12.6-0.2c2.4-0.8,4.7-1.3,7.1-1.9
		c-2.8-11.8-11.5-12-20.7-6.4c-10.7,6.4-11.6,22.9-3.9,29.8c-1.3,0.2-2.8,0.4-4.1,0.4l-0.9-1.1l-0.2,0.4l0.6-67.2h1.3
		c19.5,0,34.7,13.5,34.7,33.2C308.9,544.5,302.7,554.3,293.1,560.1z"/>
	<path class="st2" d="M357,506.4c-31.7,0-40.9,37-40.9,62.5c0,27.2,7.7,59.9,41.1,59.9c17.6,0,32.3-25.2,18.4-38.3
		c-19.5-19.1-39.8,13.1-24,22.2c6.9,3.8,16.9,1.1,16.9-7.5l-7.1,0.6v0.9c-7.5,4.9-8.8-9.8-4.9-13.5c9.2-8.4,21,9.8,15.4,17.5
		c-3,5.8-7.9,10.5-15.2,10.5c-21.2,0-25.9-33.8-26.1-49.6c20.1,0.6,38.7,2.4,56.3,0.4c0.2-8.6,0.6-15,0.6-21.4
		C387.4,531.5,380.1,506.4,357,506.4z M375.6,564.4c-16,0.8-30.4,0-44.9-0.4c0.8-14.8,7.9-50.1,27.2-50.1
		c15.8,0,18.4,20.6,18.4,32.7C376.3,552.6,376,558.4,375.6,564.4z"/>
	<path class="st2" d="M429.1,510.7c-35.7,0-30.2,48.2-0.8,42.4c15-2.8,23.1-23.7,6-28c-3.6-0.9-6.2,0.8-8.3,3.6
		c-0.6,0.8-0.9,1.1-1.1,1.7l4.7,5.1c2.6-2.4,6.8-3.8,7.1,2.3c0.8,6-10.3,9.4-14.6,9.4c-7.7,0-10.3-6.6-7.7-16.1
		c1.9-6.2,10.7-12.4,19.3-12.4c14.1,0,15.8,11.1,15.8,22.5c0,7.3-0.2,14.8-0.4,22.2c-20.8-2.6-56.3,6.8-56.3,33.6
		c0,21.6,37.5,29.1,52.8,26.8v8.1l10.9-0.4c0-29.8,1.3-59.7,1.3-89.5C457.8,521.8,451.1,510.7,429.1,510.7z M446,615.4
		c-13.7,0.8-33.8,1.5-33.8-17.1c0-22.2,17.8-27.4,36.6-27.6C448.1,585.6,446.6,600.6,446,615.4z"/>
	<path class="st2" d="M523.7,572c-6,0-12,2.5-13.9,7.8c-2.4,6.3,0.6,14.1,4.9,18.8c0-0.2,0.2-0.2,0.6-0.9c1.3-2.5,2.6-4.9,4.3-6.9
		c-2.4-2.2-3.4-4.3-3.4-5.8c0-3.1,3.9-4.9,7.9-4.9c3.6,0,7.1,1.3,8.1,4.3c5.3,12.3-7.3,31.5-16.5,31.5c-14.3,0-32.3-24.6-32.3-52.6
		c0-18.8,9.6-62.2,29.7-62.2c10.5,0,13.9,14.5,14.1,24.6l7.5-0.2c-0.4-15.4-9.2-34-23.7-34c-29.7,0-45.1,39.6-45.1,70.2
		c0,32.9,23.1,64.4,45.1,64.4c11.1,0,21.6-8.3,29.1-28.2c2.1-7.6,2.3-14.3-1.9-18.8C534.8,575.4,529.7,572,523.7,572z"/>
	<path class="st2" d="M618.1,571.9c0.2-8.6,0.6-15,0.6-21.4c0-19-7.3-44.1-30.4-44.1c-31.7,0-40.9,37-40.9,62.5
		c0,27.2,7.7,59.9,41.1,59.9c17.6,0,32.3-25.2,18.4-38.3c-19.5-19.1-39.8,13.1-24,22.2c6.9,3.8,16.9,1.1,16.9-7.5l-7.1,0.6v0.9
		c-7.5,4.9-8.8-9.8-4.9-13.5c9.2-8.4,21,9.8,15.4,17.5c-3,5.8-7.9,10.5-15.2,10.5c-21.2,0-25.9-33.8-26.1-49.6
		C581.9,572.1,600.5,574,618.1,571.9z M562,564c0.8-14.8,7.9-50.1,27.2-50.1c15.8,0,18.4,20.6,18.4,32.7c0,6-0.4,11.8-0.8,17.8
		C590.9,565.1,576.5,564.4,562,564z"/>
</g>
<g>
	<path class="st3" d="M268.3,688.6c5.3-6.8,11.6-19.3,11.6-28.6c0-26.3-32.5-40.8-49.9-40.8c-5.3,0-10.3,0.5-15.6,0.9L214.1,756
		c5.3,0.9,10.7,1.4,16.1,1.4c20.6,0,60.8-3.5,60.8-37.6C291,705,278.1,695.2,268.3,688.6z M229.5,628.7c1.3-0.2,2.6-0.5,3.9-0.5
		c14.3,0,35.9,14.1,35.9,34.7c0,8.2-3.6,15.7-8.1,21.4c-7.1-3.5-14.8-5.9-22.3-5.9c-3.4,0-6.6,0.9-9.8,1.6L229.5,628.7z
		 M229.1,690.2c3.2-1.2,6.8-1.6,10.1-1.6c5.3,0,10.3,0.9,15.4,2.8c-5.8,5.2-13.9,10.1-21.2,10.1c-1.5,0-2.8-0.2-4.3-0.7L229.1,690.2
		L229.1,690.2z M233.4,747.7l-4.3-0.2v-7.7c1.5-9.2,6.9-19.3,15.2-14.6c4.5,2.3,5.3,8,0.6,9.4l0.6,8.7c12.8-3.8,13.1-21.8,1.5-26.8
		c-7.3-2.8-13.5,0-17.8,5.6v-11.5c1.3,0.2,2.6,0.5,4.1,0.5c10.3,0,21.2-8,29.3-16c8.3,4.9,16.9,13.9,16.9,26.3
		C279.4,744.2,246.5,747.7,233.4,747.7z"/>
	<path class="st3" d="M338.3,635c-31.7,0-40.9,37-40.9,62.5c0,27.2,7.7,59.9,41.1,59.9c17.6,0,32.3-25.2,18.4-38.3
		c-19.5-19.1-39.8,13.1-24,22.2c6.9,3.8,16.9,1.1,16.9-7.5l-7.1,0.6v0.9c-7.5,4.9-8.8-9.8-4.9-13.5c9.2-8.4,21,9.8,15.4,17.5
		c-3,5.8-7.9,10.5-15.2,10.5c-21.2,0-25.9-33.8-26.1-49.6c20.1,0.6,38.7,2.4,56.3,0.4c0.2-8.6,0.6-15,0.6-21.4
		C368.7,660.1,361.4,635,338.3,635z M356.9,693c-16,0.8-30.4,0-44.9-0.4c0.8-14.8,7.9-50.1,27.2-50.1c15.8,0,18.4,20.7,18.4,32.7
		C357.7,681.2,357.3,687,356.9,693z"/>
	<polygon class="st3" points="377.4,765.5 392.4,765.5 393.3,621.8 378.3,621.8 	"/>
	<polygon class="st3" points="403.3,666.1 403.7,752.7 418.7,752.7 418.3,666.1 	"/>
	<path class="st3" d="M411.9,638c-5.3,0-9.4,4.1-9.4,9.4s4.1,9.4,9.4,9.4c5.3,0,9.4-4.1,9.4-9.4S417.2,638,411.9,638z"/>
	<path class="st3" d="M469.4,635c-31.7,0-40.9,37-40.9,62.5c0,27.2,7.7,59.9,41.1,59.9c17.6,0,32.3-25.2,18.4-38.3
		c-19.5-19.1-39.8,13.1-24,22.2c6.9,3.8,16.9,1.1,16.9-7.5l-7.1,0.6v0.9c-7.5,4.9-8.8-9.8-4.9-13.5c9.2-8.4,21,9.8,15.4,17.5
		c-3,5.8-7.9,10.5-15.2,10.5c-21.2,0-25.9-33.8-26.1-49.6c20.1,0.6,38.7,2.4,56.3,0.4c0.2-8.6,0.6-15,0.6-21.4
		C499.8,660.1,492.5,635,469.4,635z M487.9,693c-16,0.8-30.4,0-44.9-0.4c0.8-14.8,7.9-50.1,27.2-50.1c15.8,0,18.4,20.7,18.4,32.7
		C488.7,681.2,488.3,687,487.9,693z"/>
	<polygon class="st3" points="538.8,734.5 519.9,638.2 505.2,641.2 527.2,751.9 542.2,751.9 579.6,643.6 572.4,641 	"/>
	<path class="st3" d="M655.8,700.5c0.2-8.6,0.6-15,0.6-21.4c0-19-7.3-44.1-30.4-44.1c-31.7,0-40.9,37-40.9,62.5
		c0,27.2,7.7,59.9,41.1,59.9c17.6,0,32.3-25.2,18.4-38.3c-19.5-19.1-39.8,13.1-24,22.2c6.9,3.8,16.9,1.1,16.9-7.5l-7.1,0.6v0.9
		c-7.5,4.9-8.8-9.8-4.9-13.5c9.2-8.4,21,9.8,15.4,17.5c-3,5.8-7.9,10.5-15.2,10.5c-21.2,0-25.9-33.8-26.1-49.6
		C619.5,700.7,638.1,702.6,655.8,700.5z M599.6,692.6c0.8-14.8,7.9-50.1,27.2-50.1c15.8,0,18.4,20.7,18.4,32.7
		c0,6-0.4,11.8-0.8,17.8C628.5,693.7,614.1,693,599.6,692.6z"/>
</g>
<polygon class="st4" points="518.1,120.3 454.8,120.3 435.2,60.1 415.6,120.3 352.3,120.3 403.5,157.6 383.9,217.8 435.2,180.6 
	486.5,217.8 466.9,157.6 "/>
</svg>
